<?xml version="1.0" standalone="no"?><!DOCTYPE svg PUBLIC "-//W3C//DTD SVG 1.1//EN" "http://www.w3.org/Graphics/SVG/1.1/DTD/svg11.dtd"><svg t="1536759546122" class="icon" style="" viewBox="0 0 1024 1024" version="1.1" xmlns="http://www.w3.org/2000/svg" p-id="2936" xmlns:xlink="http://www.w3.org/1999/xlink" width="200" height="200"><defs><style type="text/css"></style></defs><path d="M610.79390499 437.78830375L413.0732183 437.78830375c-13.68631071 0-24.71508623-11.02877474-24.71508622-24.71508622s11.02877474-24.71508623 24.71508622-24.71508622L610.79390499 388.35813207c13.68631071 0 24.71508623 11.02877474 24.71508621 24.71508623S624.48021645 437.78830375 610.79390499 437.78830375z" fill="#A4A4A4" p-id="2937"></path><path d="M563.88839254 536.64864786L413.0732183 536.64864786c-13.68631071 0-24.71508623-11.02877474-24.71508622-24.71508622S399.51978355 487.21847542 413.0732183 487.21847542l150.81517425 0c13.68631071 0 24.71508623 11.02877474 24.71508622 24.71508622S577.57470403 536.64864786 563.88839254 536.64864786z" fill="#A4A4A4" p-id="2938"></path><path d="M859.80503897 462.50338997c0-163.5713479-155.20010912-296.5810308-346.01120247-296.5810308S167.64975808 298.93204206 167.64975808 462.50338997c0 89.95759767 48.63291057 174.60012265 133.54118978 232.2686564 11.29452818 7.70685442 26.70823779 4.78356502 34.28221627-6.51096317 7.70685442-11.29452818 4.78356502-26.70823779-6.51096316-34.28221627-71.08909101-48.23428042-111.88227045-117.99460343-111.88227044-191.34260025 0-136.33160245 133.0096829-247.15085914 296.5810308-247.15085911s296.5810308 110.95213262 296.5810308 247.15085911-133.0096829 247.15085914-296.58103081 247.15085913c-1.59452142 0-2.79041267 0.53150689-4.25205814 0.93013782-11.69315912-2.12602907-23.51919496 3.98630393-27.63837563 15.54658634-4.78356502 13.42055726-35.8767377 36.00961441-72.68361241 57.00414936 13.42055726-44.91236009 7.04247082-54.61236685 2.65753595-60.99045407-5.18219518-7.70685442-13.81918742-12.35754273-23.12056402-12.35754273-13.68631071 0-24.71508623 11.02877474-24.71508623 24.71508623 0 4.51781158 1.19589125 8.63699224 3.32192033 12.35754272-2.52465923 14.08494163-13.28768053 47.03838915-25.51234655 77.06854729-3.85342721 9.30137661-1.59452142 20.06439791 5.71370285 27.10686873 4.65068831 4.51781158 10.89589803 6.90959409 17.14110775 6.90959411 3.32192032 0 6.77671738-0.66438438 10.09863693-2.12602908 28.1698825-12.62329694 114.00829952-53.41647561 144.96859546-97.00006848C707.66109674 756.16113059 859.80503897 624.48021645 859.80503897 462.50338997z" fill="#A4A4A4" p-id="2939"></path></svg>