<?xml version="1.0" standalone="no"?><!DOCTYPE svg PUBLIC "-//W3C//DTD SVG 1.1//EN" "http://www.w3.org/Graphics/SVG/1.1/DTD/svg11.dtd"><svg t="1536759586199" class="icon" style="" viewBox="0 0 1024 1024" version="1.1" xmlns="http://www.w3.org/2000/svg" p-id="3068" xmlns:xlink="http://www.w3.org/1999/xlink" width="200" height="200"><defs><style type="text/css"></style></defs><path d="M511.93356164 168.31414168C321.12246828 168.31414168 165.92235917 301.45670129 165.92235917 465.0280492c0 89.95759767 48.63291057 174.60012265 134.47132759 232.80016405l64.976758 40.12879507c-2.79041267 18.20412229-14.4835718 57.53565703-25.77809998 89.55896672-3.32192032 9.30137661-0.66438438 19.66576699 6.51096316 26.44248437 4.65068831 4.25205815 10.63014459 6.51096316 16.7424776 6.51096315 3.45479705 0 6.77671738-0.66438438 10.09863693-2.12602906 28.1698825-12.49041944 113.8754228-53.28359888 144.83571795-96.86719176 188.15355741-2.65753596 340.1646229-134.73708103 340.16462292-296.5810308C858.07764083 301.45670129 702.87753172 168.31414168 511.93356164 168.31414168zM564.68565364 536.64864786L413.87047862 536.64864786c-13.68631071 0-24.71508623-11.02877474-24.71508622-24.71508622s11.02877474-24.71508623 24.71508622-24.71508622l150.81517425 0c13.68631071 0 24.71508623 11.02877474 24.71508622 24.71508622S578.37196434 536.64864786 564.68565364 536.64864786zM611.59116607 437.78830375L413.87047862 437.78830375c-13.68631071 0-24.71508623-11.02877474-24.71508622-24.71508622s11.02877474-24.71508623 24.71508622-24.71508622l197.72068668 0c13.68631071 0 24.71508623 11.02877474 24.71508623 24.71508622C636.30625152 426.759529 625.27747677 437.78830375 611.59116607 437.78830375z" fill="#007AFF" p-id="3069"></path></svg>