<?xml version="1.0" standalone="no"?><!DOCTYPE svg PUBLIC "-//W3C//DTD SVG 1.1//EN" "http://www.w3.org/Graphics/SVG/1.1/DTD/svg11.dtd"><svg t="1537952499237" class="icon" style="" viewBox="0 0 1024 1024" version="1.1" xmlns="http://www.w3.org/2000/svg" p-id="1922" xmlns:xlink="http://www.w3.org/1999/xlink" width="200" height="200"><defs><style type="text/css"></style></defs><path d="M316.60562987 995.02459307H39.8980736v-934.49481494h275.4939264v934.49481494z m-264.57125974-10.92266667h252.4349632V71.4524448H52.03437013v912.6494816z" fill="#007FFF" p-id="1923"></path><path d="M178.25185173 255.92414827c-27.9134816 0-49.75881493-21.84533333-49.75881493-49.75881494s21.84533333-49.75881493 49.75881493-49.75881493 49.75881493 21.84533333 49.75881494 49.75881493-21.84533333 49.75881493-49.75881494 49.75881494z m0-87.38133334c-20.63170347 0-38.83614827 16.99081493-38.83614826 38.83614827 0 20.63170347 16.99081493 38.83614827 38.83614826 38.83614827 20.63170347 0 38.83614827-16.99081493 38.83614827-38.83614827 0-21.84533333-18.2044448-38.83614827-38.83614827-38.83614827zM45.96622187 667.34459307h264.57125973v10.92266666H45.96622187zM45.96622187 709.82162987h264.57125973v10.92266666H45.96622187zM612.73125973 995.02459307H337.23733333v-934.49481494h275.4939264v934.49481494z m-264.57125973-10.92266667h252.4349632V71.4524448H348.16v912.6494816z" fill="#007FFF" p-id="1924"></path><path d="M475.59111147 255.92414827c-27.9134816 0-49.75881493-21.84533333-49.75881494-49.75881494s21.84533333-49.75881493 49.75881494-49.75881493 49.75881493 21.84533333 49.75881493 49.75881493-23.0589632 49.75881493-49.75881493 49.75881494z m0-87.38133334c-20.63170347 0-38.83614827 16.99081493-38.83614827 38.83614827 0 20.63170347 16.99081493 38.83614827 38.83614827 38.83614827 20.63170347 0 38.83614827-16.99081493 38.83614826-38.83614827-1.21362987-21.84533333-18.2044448-38.83614827-38.83614826-38.83614827zM343.3054816 667.34459307h264.57125867v10.92266666H343.3054816zM343.3054816 709.82162987h264.57125867v10.92266666H343.3054816zM732.88059307 1009.58814827L610.304 82.37511147l273.06666667-36.4088896L1007.16088853 973.17925973l-274.28029546 36.40888854z m-110.44029654-917.504L742.58962987 996.23822187l250.00770346-32.768-118.93570346-904.1540736-251.22133334 32.768z" fill="#007FFF" p-id="1925"></path><path d="M765.64859307 258.35140693c-10.92266667 0-21.84533333-3.64088853-30.34074134-9.7090368-10.92266667-8.49540693-16.99081493-19.4180736-19.4180736-32.768-1.21362987-13.3499264 1.21362987-26.69985173 9.7090368-36.40888853 8.49540693-10.92266667 19.4180736-16.99081493 32.768-19.41807467 26.69985173-3.64088853 52.1860736 15.77718507 55.8269632 42.47703787 3.64088853 26.69985173-15.77718507 52.1860736-42.47703786 55.82696213h-6.0681472z m0-87.38133333h-4.85451947c-9.7090368 1.21362987-19.4180736 6.06814827-25.48622187 14.56355627s-8.49540693 18.2044448-7.28177813 27.9134816c1.21362987 9.7090368 6.06814827 19.4180736 14.56355627 25.48622186s18.2044448 8.49540693 27.9134816 7.28177814c20.63170347-2.42725973 35.19525973-21.84533333 32.768-42.47703787-2.42725973-19.4180736-18.2044448-32.768-37.6225184-32.768zM957.92393493 648.87314987l1.44421867 10.82557653-262.26536213 34.86757867-1.45635627-10.82557654zM962.83913493 691.24096l1.4320832 10.82557653-262.2653632 34.86757867-1.44421973-10.82557547z" fill="#007FFF" p-id="1926"></path></svg>