<?xml version="1.0" standalone="no"?><!DOCTYPE svg PUBLIC "-//W3C//DTD SVG 1.1//EN" "http://www.w3.org/Graphics/SVG/1.1/DTD/svg11.dtd"><svg t="1536759520770" class="icon" style="" viewBox="0 0 1024 1024" version="1.1" xmlns="http://www.w3.org/2000/svg" p-id="2805" xmlns:xlink="http://www.w3.org/1999/xlink" width="200" height="200"><defs><style type="text/css"></style></defs><path d="M766.91714477 243.17828369c-9.26971435 0-23.17428589 9.26971435-23.17428589 23.17428589L743.74285888 790.09143067c0 23.17428589-13.90457153 46.34857177-37.07885742 46.34857177l-78.79257201 0L331.24057007 836.44000244C303.431427 836.44000244 280.25714112 813.26571656 280.25714112 790.09143067l0-46.34857179C280.25714112 720.568573 303.431427 697.39428711 326.60571289 697.39428711l361.51885987 0c9.26971435 0 9.26971435-4.63485718 9.26971435-13.90457153L697.39428711 233.90856933c0-46.34857177-23.17428589-92.69714356-74.15771484-92.69714355L331.24057007 141.21142578C284.89199829 141.21142578 233.90856933 182.92514038 233.90856933 233.90856933l1e-8 505.19943238 0 46.34857178L233.90856933 790.09143067c0 0 0 0 1e-8 4.63485717 0 4.63485718 0 4.63485718 0 9.26971435 4.63485718 41.7137146 46.34857177 74.15771484 83.4274292 78.79257203 0 0 4.63485718 0 4.63485717 0 0 0 0 0 4.63485718 0l4.63485718 0 296.63085938 0 78.79257201 0c46.34857177 0 83.4274292-41.7137146 83.42742921-92.69714356L790.09143067 266.35256958C790.09143067 252.44799805 776.18685913 243.17828369 766.91714477 243.17828369zM331.24057007 187.55999756l296.63085938 0C637.1411438 187.55999756 651.04571533 201.46456909 651.04571533 233.90856933l0 417.137146L326.60571289 651.04571533c-18.53942872 0-46.34857177 13.90457153-46.34857177 23.17428589L280.25714112 233.90856933C280.25714112 210.73428344 308.06628417 187.55999756 331.24057007 187.55999756z" fill="#A4A4A4" p-id="2806"></path><path d="M688.12457276 743.74285888L335.87542724 743.74285888c-9.26971435 0-18.53942872 9.26971435-18.5394287 23.17428589S326.60571289 790.09143067 335.87542724 790.09143067l347.61428834-1e-8c9.26971435 0 18.53942872-9.26971435 18.53942871-23.17428589S697.39428711 743.74285888 688.12457276 743.74285888z" fill="#A4A4A4" p-id="2807"></path></svg>