<?xml version="1.0" standalone="no"?><!DOCTYPE svg PUBLIC "-//W3C//DTD SVG 1.1//EN" "http://www.w3.org/Graphics/SVG/1.1/DTD/svg11.dtd"><svg t="1536759474781" class="icon" style="" viewBox="0 0 1024 1024" version="1.1" xmlns="http://www.w3.org/2000/svg" p-id="2397" xmlns:xlink="http://www.w3.org/1999/xlink" width="200" height="200"><defs><style type="text/css"></style></defs><path d="M788.36415481 228.72674108c-13.81820749 0-23.03034605 9.21213857-23.03034603 23.03034604l0 534.30403251c0 23.03034605-23.03034605 46.06069211-46.06069213 46.06069211L313.93902264 832.12181247c-27.6364157 0-59.87890031-23.03034605-59.87890033-46.06069212l0-50.66676174c0-23.03034605 27.6364157-36.84855427 55.27283068-36.84855427l386.90981689 0c13.81820749 0 23.03034605-9.21213857 23.03034605-23.03034605L719.27311593 224.12067216c0-50.66676175-36.84855427-82.90924638-92.12138495-82.90924638L313.93902264 141.21142578C263.27226088 141.21142578 212.60549913 168.84784148 212.60549913 224.12067216l0 566.54651711c0 0 0 0 0 4.60606893 0 4.60606892 0 4.60606892 0 9.21213857 4.60606892 41.45462318 46.06069211 73.69710781 87.51531529 78.30317745 0 0 4.60606892 0 4.60606893 0 0 0 0 0 4.60606892 0l409.94016293 0c50.66676175 0 92.12138495-41.45462318 92.12138495-87.5153153L811.39450087 251.75708786C811.39450087 242.54494929 802.1823623 228.72674108 788.36415481 228.72674108zM700.8488388 744.60649717L323.1511612 744.60649717c-13.81820749 0-23.03034605 9.21213857-23.03034605 23.03034606s9.21213857 23.03034605 23.03034605 23.03034604l377.69767832 0c13.81820749 0 23.03034605-9.21213857 23.03034606-23.03034604S714.66704701 744.60649717 700.8488388 744.60649717z" fill="#007AFF" p-id="2398"></path></svg>