<?xml version="1.0" standalone="no"?><!DOCTYPE svg PUBLIC "-//W3C//DTD SVG 1.1//EN" "http://www.w3.org/Graphics/SVG/1.1/DTD/svg11.dtd"><svg t="1537449422348" class="icon" style="" viewBox="0 0 1024 1024" version="1.1" xmlns="http://www.w3.org/2000/svg" p-id="1825" xmlns:xlink="http://www.w3.org/1999/xlink" width="200" height="200"><defs><style type="text/css"></style></defs><path d="M726.87565915 355.20312681l35.85918049 436.64016614h-494.43698225l35.85918049-436.64016614h81.00108826c9.28081777-79.73381522 53.9994525-154.82817632 118.96899581-152.71881276 63.28090676 2.10936355 107.15617798 54.42208901 117.28099576 152.71881276h105.46817794zM350.56367267 413.42066992c0 21.51627209 17.29627198 38.39054407 38.39054407 38.39054407s38.39054407-17.29627198 38.39054407-38.39054408-17.29627198-38.39054407-38.39054407-38.39054406-38.39054407 17.29627198-38.39054407 38.39054406zM503.70448543 240.4528581c-43.45327121-1.26472703-72.56236102 62.85954326-78.46908818 116.01563223h156.51553986c-6.75009068-65.39090681-36.28118051-114.32826868-78.04772468-116.01563223zM573.73611939 411.31194286c0 21.51627209 17.7189085 39.2345441 39.23454409 39.23454409s39.2345441-17.7189085 39.2345441-39.23454409c0-21.51627209-17.7189085-39.2345441-39.2345441-39.23454409-21.93699911 0-39.2345441 17.29627198-39.23454409 39.23454409z" fill="#FFBE4B" p-id="1826"></path></svg>