<?xml version="1.0" standalone="no"?><!DOCTYPE svg PUBLIC "-//W3C//DTD SVG 1.1//EN" "http://www.w3.org/Graphics/SVG/1.1/DTD/svg11.dtd"><svg t="1536838987431" class="icon" style="" viewBox="0 0 1024 1024" version="1.1" xmlns="http://www.w3.org/2000/svg" p-id="1781" xmlns:xlink="http://www.w3.org/1999/xlink" width="200" height="200"><defs><style type="text/css"></style></defs><path d="M404.68596983 480.91330229H282.70696186A76.30371256 76.30371256 0 0 1 206.4796294 404.68596983V282.70696186C206.4796294 240.6979109 240.65972086 206.4796294 282.70696186 206.4796294H404.68596983c42.047241 0 76.22733247 34.2182815 76.22733246 76.22733246V404.68596983A76.30371256 76.30371256 0 0 1 404.68596983 480.91330229zM282.70696186 236.95528636c-25.24362063 0-45.7516755 20.50805488-45.7516755 45.7516755V404.68596983a45.8280556 45.8280556 0 0 0 45.7516755 45.75167549H404.68596983a45.8280556 45.8280556 0 0 0 45.75167549-45.75167549V282.70696186a45.8280556 45.8280556 0 0 0-45.75167549-45.7516755H282.70696186z m457.40218484 243.95801593H618.13013874A76.30371256 76.30371256 0 0 1 541.90280627 404.68596983V282.70696186C541.90280627 240.6979109 576.08289773 206.4796294 618.13013874 206.4796294h121.97900795c42.00905096 0 76.22733247 34.2182815 76.22733248 76.22733246V404.68596983a76.30371256 76.30371256 0 0 1-76.22733247 76.22733246zM618.13013874 236.95528636a45.8280556 45.8280556 0 0 0-45.75167551 45.7516755V404.68596983a45.8280556 45.8280556 0 0 0 45.7516755 45.75167549h121.97900797a45.8280556 45.8280556 0 0 0 45.71348545-45.75167549V282.70696186c0-25.24362063-20.50805488-45.7516755-45.71348546-45.7516755H618.13013874zM404.68596983 816.33647917H282.70696186A76.30371256 76.30371256 0 0 1 206.4796294 740.1091467V618.16832878a76.38009265 76.38009265 0 0 1 76.22733246-76.26552252H404.68596983c42.047241 0 76.22733247 34.2182815 76.22733246 76.26552252v121.94081792a76.30371256 76.30371256 0 0 1-76.22733246 76.22733246zM282.70696186 572.37846324a45.8280556 45.8280556 0 0 0-45.7516755 45.75167549v121.94081792c0 25.24362063 20.50805488 45.71348545 45.7516755 45.71348546H404.68596983c25.20543057 0 45.7516755-20.46986483 45.75167549-45.71348546V618.13013874a45.8280556 45.8280556 0 0 0-45.75167549-45.75167551H282.70696186z m457.40218484 243.95801592H618.13013874a76.30371256 76.30371256 0 0 1-76.22733248-76.22733246V618.16832878a76.38009265 76.38009265 0 0 1 76.22733247-76.26552252h121.97900797a76.38009265 76.38009265 0 0 1 76.22733246 76.26552252v121.94081792a76.30371256 76.30371256 0 0 1-76.22733247 76.22733246zM618.13013874 572.37846324a45.8280556 45.8280556 0 0 0-45.75167551 45.75167549v121.94081792c0 25.24362063 20.54624492 45.71348545 45.7516755 45.71348546h121.97900797c25.20543057 0 45.71348545-20.46986483 45.71348545-45.71348546V618.13013874a45.8280556 45.8280556 0 0 0-45.71348546-45.75167551H618.13013874z" fill="#C5CAD4" p-id="1782"></path></svg>