<?xml version="1.0" standalone="no"?><!DOCTYPE svg PUBLIC "-//W3C//DTD SVG 1.1//EN" "http://www.w3.org/Graphics/SVG/1.1/DTD/svg11.dtd"><svg t="1540285422523" class="icon" style="" viewBox="0 0 1024 1024" version="1.1" xmlns="http://www.w3.org/2000/svg" p-id="2215" xmlns:xlink="http://www.w3.org/1999/xlink" width="200" height="200"><defs><style type="text/css"></style></defs><path d="M512 300.53753647C394.52085374 300.53753647 298.29983848 396.75855173 298.29983848 514.23769798S394.52085374 727.93785948 512 727.93785948s213.70016152-95.10216603 213.70016152-213.7001615S629.47914626 300.53753647 512 300.53753647z m98.45871323 288.6630453c6.71309392 6.71309392 6.71309392 16.78273505-1e-8 23.49582944-3.3565472 3.3565472-7.83194315 4.47539594-12.30733908 4.47539595s-8.95079187-1.11884924-12.30733909-4.47539595l-74.96288429-74.96288378-74.96288378 74.96288378c-3.3565472 3.3565472-7.83194315 4.47539594-12.3073391 4.47539595s-8.95079187-1.11884924-12.30733908-4.47539595c-6.71309392-6.71309392-6.71309392-16.78273505 0-23.49582944l74.96288378-74.96288379-74.96288378-74.9628838c-6.71309392-6.71309392-6.71309392-16.78273505 0-23.49582944s16.78273505-6.71309392 23.49582943 0l74.9628838 74.96288379 74.96288379-74.96288379c6.71309392-6.71309392 16.78273505-6.71309392 23.49582945 0s6.71309392 16.78273505 0 23.49582944l-74.9628838 74.9628838 77.20058176 74.96288379z" fill="#8a8a8a" p-id="2216"></path></svg>