<?xml version="1.0" standalone="no"?><!DOCTYPE svg PUBLIC "-//W3C//DTD SVG 1.1//EN" "http://www.w3.org/Graphics/SVG/1.1/DTD/svg11.dtd"><svg t="1537449491520" class="icon" style="" viewBox="0 0 1024 1024" version="1.1" xmlns="http://www.w3.org/2000/svg" p-id="1825" xmlns:xlink="http://www.w3.org/1999/xlink" width="200" height="200"><defs><style type="text/css"></style></defs><path d="M806.89278793 316.59949076h-588.88612389c-23.50234688 0-42.55450666-19.05143559-42.55450666-42.55450666s19.05143559-42.55450666 42.55450666-42.55450665h588.88612389c23.50234688 0 42.55450666 19.05143559 42.55450666 42.55450665s-19.05143559 42.55450666-42.55450666 42.55450666zM806.89278793 553.92300737h-588.88612389c-23.50234688 0-42.55450666-19.05143559-42.55450666-42.55450666s19.05143559-42.55450666 42.55450666-42.55450666h588.88612389c23.50234688 0 42.55450666 19.05143559 42.55450666 42.55450666s-19.05143559 42.55450666-42.55450666 42.55450666zM806.89278793 791.24579978h-588.88612389c-23.50234688 0-42.55450666-19.05143559-42.55450666-42.55450665s19.05143559-42.55450666 42.55450666-42.55450667h588.88612389c23.50234688 0 42.55450666 19.05143559 42.55450666 42.55450667s-19.05143559 42.55450666-42.55450666 42.55450665z" fill="#007FFF" p-id="1826"></path></svg>