<?xml version="1.0" standalone="no"?><!DOCTYPE svg PUBLIC "-//W3C//DTD SVG 1.1//EN" "http://www.w3.org/Graphics/SVG/1.1/DTD/svg11.dtd"><svg t="1539242548250" class="icon" style="" viewBox="0 0 1024 1024" version="1.1" xmlns="http://www.w3.org/2000/svg" p-id="2069" xmlns:xlink="http://www.w3.org/1999/xlink" width="200" height="200"><defs><style type="text/css"></style></defs><path d="M697.39428711 820.03973847h-410.71965177c-46.20596084 0-83.85526201-37.64930116-83.855262-83.855262V508.57733612c0-46.20596084 37.64930116-83.85526201 83.855262-83.855262h84.99615019c9.69754717-3.99310761 63.88972322-30.80397413 69.02371977-174.55585175 0-23.95864639 17.68376311-42.21285323 43.92418444-45.63551711 42.21285323-5.70443955 96.97547303 22.81775819 111.80701673 74.15771485 13.12021103 46.77640459 0 108.95479658-10.26799163 146.03365401h151.16764983c24.52909013 0 47.91729278 10.83843536 63.88972322 29.66308594 15.97243117 18.82465058 22.81775819 43.92418517 18.25420685 68.45327529l-39.93107757 227.60714036c-6.27488328 40.50152129-41.07196503 69.5941635-82.14393006 69.59416276z m-410.71965177-349.11170351c-21.10642626 0-38.21974563 17.11331865-38.2197449 38.2197449v227.60714035c0 21.10642626 17.11331865 38.21974563 38.2197449 38.21974561h410.71965177c18.82465058 0 34.22663729-13.12021103 37.64930116-31.37441787l39.93107755-227.60714034c1.71133193-11.40887909-1.1408882-22.24731445-8.55665967-31.37441787-7.41577148-8.55665968-17.68376311-13.69065477-29.09264149-13.69065478h-182.54206769c-7.41577148 0-14.26109923-3.42266388-18.82465058-9.69754714-3.99310761-6.27488328-5.1339958-14.26109923-2.85222014-21.10642698 9.69754717-25.66997833 31.94486162-102.67991258 18.8246513-148.31542969-6.27488328-21.67687072-25.66997833-34.79708174-41.64240948-39.3606331-13.12021103-3.99310761-22.24731445-2.28177568-25.09953388-1.1408882v0.57044446c-6.27488328 194.52139053-96.97547303 216.76870498-107.24346465 218.48003691-1.1408882 0-2.85222013 0.57044374-3.9931076 0.57044374H286.67463533z" fill="#cdcdcd" p-id="2070"></path><path d="M286.67463533 448.11027678c-33.65619355 0-61.03750381 27.38131026-61.03750308 61.03750309v227.60714034c0 33.65619355 27.38131026 61.03750381 61.03750309 61.0375038h52.48084484V448.11027678h-52.48084484z" fill="#cdcdcd" p-id="2071"></path><path d="M339.15548018 820.03973847h-52.48084485c-46.20596084 0-83.85526201-37.64930116-83.85526199-83.855262V508.57733612c0-46.20596084 37.64930116-83.85526201 83.85526199-83.855262h52.48084485c12.54976729 0 22.81775819 10.26799162 22.8177582 22.8177582V797.22198028c0 12.54976729-10.26799162 22.81775819-22.8177582 22.81775819z m-52.48084485-349.11170351c-21.10642626 0-38.21974563 17.11331865-38.2197449 38.2197449v227.60714035c0 21.10642626 17.11331865 38.21974563 38.2197449 38.21974561h29.66308594V470.92803497h-29.66308594z" fill="#cdcdcd" p-id="2072"></path></svg>