<?xml version="1.0" standalone="no"?><!DOCTYPE svg PUBLIC "-//W3C//DTD SVG 1.1//EN" "http://www.w3.org/Graphics/SVG/1.1/DTD/svg11.dtd"><svg t="1537877494495" class="icon" style="" viewBox="0 0 1024 1024" version="1.1" xmlns="http://www.w3.org/2000/svg" p-id="1860" xmlns:xlink="http://www.w3.org/1999/xlink" width="200" height="200"><defs><style type="text/css"></style></defs><path d="M754.96790362 836.80210066h-486.66000367c-25.59744715 0-46.34857177-20.75112462-46.34857177-46.34857178v-509.83428955c0-25.59744715 20.75112462-46.34857177 46.34857177-46.34857178h61.90720797c9.54563319-26.99949144 35.28285026-46.34857177 65.55136442-46.34857177h231.74285889c30.26851417 0 56.00573122 19.34908033 65.55136442 46.34857177H754.96790362c25.59744715 0 46.34857177 20.75112462 46.34857176 46.34857177v509.83428956c0 25.59744715-20.75112462 46.34857177-46.34857177 46.34857177z m-274.83327092-71.86635733c6.01155459 6.04704022 13.57868314 9.05245543 22.63113857 9.05245543s16.58409834-3.00541521 22.63113857-9.05245543c6.01155459-6.01155459 9.05245543-13.57868314 9.05245541-22.63113856s-3.04090082-16.58409834-9.05245541-22.63113856c-6.04704022-6.01155459-13.57868314-9.05245543-22.63113857-9.05245543s-16.61958397 3.04090082-22.63113857 9.05245543c-6.04704022 6.04704022-9.05245543 13.57868314-9.05245541 22.63113856s3.00541521 16.62030817 9.05245541 22.63113856zM424.77053953 504.67764986c12.72268296 0 23.35750758-9.50073302 24.99998509-22.1176833 2.27542521-17.48355031 7.4932605-30.86090684 15.65423011-40.11830985 11.31556929-12.80089616 25.24766027-19.23682987 41.86796845-19.23682988 16.58409834 0 29.42048014 4.9151212 38.47293556 14.71060216 9.05245543 9.8302424 13.57868314 24.54084456 13.57868312 44.1310823 0 10.57326794-2.26311385 21.49994373-6.78934155 32.81551302-4.52622772 11.31556929-12.83638179 22.2777307-24.89425242 32.81478882-16.61958397 15.09949565-28.2892853 29.06707227-35.07862687 41.86796844-6.78934157 12.83638179-10.18437445 26.02617144-10.18437446 39.60485458v14.10082878c0 4.71089781 3.8186878 8.5303098 8.5303098 8.53030979h23.67615402c4.71089781 0 8.5303098-3.8186878 8.5303098-8.53030979V635.93897772c0-4.52622772 3.00541521-12.80089616 9.05245542-24.89425243 6.01155459-12.05787062 16.58409834-24.11646546 31.68359399-36.20982169 15.06401002-12.05787062 27.15736628-26.3795793 36.2098217-42.99916327 9.05245543-16.58409834 13.57868314-34.68900919 13.57868313-54.31473255 0-28.64269315-9.44134891-52.0516187-28.28928529-70.15652955-18.88269782-18.10491084-44.90886926-27.15736628-78.07779015-27.15736627-30.1982671 0-55.83554507 10.18437445-76.94587111 30.55239915-15.91783763 15.33196271-26.26515626 36.87535822-31.04195595 64.59977031-2.6418686 15.33413529 9.28999185 29.31909263 24.85007644 29.31909264h0.61629116zM627.50933123 234.27066755H396.24878717c-12.62708903 0-23.30102026 9.90048945-23.64718616 22.52323329-0.35920144 13.09636831 10.15033722 23.82533848 23.16559552 23.82533849h231.26054407c12.62708903 0 23.30102026-9.90048945 23.64718615-22.52323329 0.35920144-13.09564412-10.15033722-23.82533848-23.16559552-23.82533848z" fill="#ABB4BF" p-id="1861"></path></svg>