<?xml version="1.0" standalone="no"?><!DOCTYPE svg PUBLIC "-//W3C//DTD SVG 1.1//EN" "http://www.w3.org/Graphics/SVG/1.1/DTD/svg11.dtd"><svg t="1538293997094" class="icon" style="" viewBox="0 0 1024 1024" version="1.1" xmlns="http://www.w3.org/2000/svg" p-id="1951" xmlns:xlink="http://www.w3.org/1999/xlink" width="200" height="200"><defs><style type="text/css"></style></defs><path d="M532.05172137 251.07841486l-1.80197123 337.69705679a19.16990557 19.16990557 0 0 1-38.33981115-0.19169875l1.78280112-336.52769285-102.32895613 102.32895613a19.16990557 19.16990557 0 0 1-27.10624656-27.10624656L499.80793974 191.7283873a19.16990557 19.16990557 0 0 1 27.10624656 0l135.55040296 135.55040232a19.16990557 19.16990557 0 1 1-27.10624656 27.10624656l-103.32579146-103.32579146zM636.94944505 435.32037773a19.16990557 19.16990557 0 0 1 0-38.33981115H742.03886747a38.33981115 38.33981115 0 0 1 38.33981113 38.33981115v364.22820643a38.33981115 38.33981115 0 0 1-38.33981114 38.33981115H281.96113253a38.33981115 38.33981115 0 0 1-38.33981113-38.33981115V435.32037773a38.33981115 38.33981115 0 0 1 38.33981114-38.33981115h103.78586884a19.16990557 19.16990557 0 0 1 0 38.33981115H281.96113253v364.22820643h460.07773494V435.32037773h-105.08942242z" fill="#1296db" p-id="1952"></path></svg>