<?xml version="1.0" standalone="no"?><!DOCTYPE svg PUBLIC "-//W3C//DTD SVG 1.1//EN" "http://www.w3.org/Graphics/SVG/1.1/DTD/svg11.dtd"><svg t="1540956032090" class="icon" style="" viewBox="0 0 1329 1024" version="1.1" xmlns="http://www.w3.org/2000/svg" p-id="2245" xmlns:xlink="http://www.w3.org/1999/xlink" width="259.5703125" height="200"><defs><style type="text/css"></style></defs><path d="M973.04960937 898.52890625h-686.1805664c-54.8578125 0-99.67763672-42.09873047-101.1375-94.37695312l-68.66455078-435.77753907v-2.40380859c0-53.50166016 45.40605469-97.02773438 101.21835937-97.02773438h13.14931641v-55.40273437c0-53.50166016 45.39638672-97.02773438 101.18847656-97.02773438h205.83896485c36.97294922 0 92.66132813 30.51035156 123.20332031 65.33613282h265.63798828c42.81767578 0 141.70429688 31.34267578 146.72724609 92.18935547 39.96210937 12.97441406 68.82802734 49.27939453 68.82802735 91.93271484v2.41435547l-68.67509766 435.76787109c-1.45810547 52.28876953-46.26826172 94.37695313-101.1375 94.37695313zM182.31083984 363.95615234l68.56171875 435.12011719v2.41435547c0 18.55283203 16.14902344 33.64365234 35.99736329 33.64365234h686.1805664c19.84746094 0 35.99736328-15.09082031 35.99736328-33.64365234v-2.41435547l68.56171875-435.12011719c-1.11972656-17.61855469-16.82753906-31.63095703-35.97539062-31.63095703h-32.58544922v-52.64912109c-1.60224609-3.38027344-10.57060547-12.32753906-30.3046875-21.19306641-20.29921875-9.10283203-40.88671875-13.25214844-51.44765625-13.25214843h-300.17460938l-9.55371093-15.07060547c-15.77900391-24.9328125-62.15097656-50.26552734-79.1015625-50.26552735h-205.83896485c-19.85712891 0-36.00703125 15.10136719-36.00703125 33.64365235v118.7859375h-78.34130859c-19.13818359 0-34.84599609 14.01152344-35.96572266 31.640625z" fill="#007aff" p-id="2246"></path><path d="M150.65966797 331.42167969h954.86835937v61.32919922h-954.86835937z" fill="#007aff" p-id="2247"></path></svg>