<?xml version="1.0" standalone="no"?><!DOCTYPE svg PUBLIC "-//W3C//DTD SVG 1.1//EN" "http://www.w3.org/Graphics/SVG/1.1/DTD/svg11.dtd"><svg t="1536907915142" class="icon" style="" viewBox="0 0 1024 1024" version="1.1" xmlns="http://www.w3.org/2000/svg" p-id="2037" xmlns:xlink="http://www.w3.org/1999/xlink" width="200" height="200"><defs><style type="text/css"></style></defs><path d="M511.97528076 173.00036621q92.25219727 0 170.16723633 45.4586792t123.37371827 123.37371826 45.45867919 170.16723633q0 110.79162598-64.66552734 199.31121826t-167.07733155 122.48382569q-11.91467286 2.20001221-17.64953613-3.08990479t-5.73486328-13.24951172q0-1.33483887 0.22247315-33.76647949t0.22247314-59.37561035q0-42.8137207-22.96417236-62.68798828 25.16418458-2.64495849 45.23620605-7.93487549t41.50360107-17.20458985 35.74401856-29.36645507 23.38439942-46.34857178 9.0472412-66.4453125q0-52.52838135-34.87884521-90.94207764 16.33941651-40.16876221-3.53485108-90.05218506-12.35961914-3.97979737-35.74401855 4.8449707t-40.61370849 19.4293213l-16.7843628 10.60455322q-41.05865479-11.46972656-84.76226806-11.46972656t-84.76226807 11.46972656q-7.06970214-4.8449707-18.76190185-11.91467285t-36.85638429-17.00683594-37.5238037-5.95733643q-19.87426758 49.88342286-3.53485108 90.05218507-34.87884521 38.41369629-34.87884522 90.94207763 0 37.52380372 9.04724122 66.22283935t23.1866455 46.34857178 35.54626465 29.56420898 41.50360108 17.20458985 45.23620605 7.93487549q-17.20458984 15.89447021-21.62933349 45.4586792-9.26971435 4.42474365-19.87426758 6.62475585t-25.16418457 2.20001221-28.92150879-9.4921875-24.49676514-27.58666992q-8.37982177-14.11468506-21.40686035-22.96417236t-21.85180664-10.60455322l-8.82476807-1.33483887q-9.26971435 0-12.80456542 1.97753906t-2.20001221 5.06744385 3.97979736 6.17980957 5.73486329 5.28991699l3.08990477 2.20001221q9.71466065 4.42474365 19.20684815 16.78436279t13.91693115 22.51922608l4.42474366 10.15960693q5.73486328 16.78436279 19.42932128 27.14172363t29.56420899 13.24951172 30.67657471 3.08990479 24.49676513-1.55731202l10.15960693-1.75506591q0 16.78436279 0.22247315 39.05639648t0.22247315 24.05181885q0 7.93487549-5.73486328 13.24951172t-17.64953614 3.08990479q-102.4118042-33.98895263-167.07733154-122.48382569t-64.66552735-199.31121826q0-92.25219727 45.4586792-170.16723633t123.37371827-123.37371826 170.16723632-45.45867921zM301.41680908 659.8704834q1.33483887-3.08990479-3.08990478-5.28991699-4.42474365-1.33483887-5.73486328 0.88989257-1.33483887 3.08990479 3.08990478 5.28991699 3.97979737 2.64495849 5.73486328-0.88989258zM315.11126709 674.87506104q3.08990479-2.20001221-0.88989258-7.06970216-4.42474365-3.97979737-7.06970214-1.33483886-3.08990479 2.20001221 0.88989257 7.06970215 4.42474365 4.42474365 7.06970215 1.33483887zM328.36077881 694.74932862q3.97979737-3.08990479 0-8.37982179-3.53485107-5.73486328-7.51464844-2.64495849-3.97979737 2.20001221 0 7.93487549t7.51464844 3.08990479zM346.90020752 713.28875732q3.53485107-3.53485107-1.75506592-8.37982177-5.289917-5.289917-8.82476806-1.33483887-3.97979737 3.53485107 1.75506591 8.37982178 5.289917 5.289917 8.82476807 1.33483886zM372.06439209 724.3135376q1.33483887-4.8449707-5.73486328-7.06970215-6.62475586-1.75506592-8.37982178 3.08990478t5.73486328 6.62475586q6.62475586 2.64495849 8.37982178-2.64495849zM399.87353516 726.53826904q0-5.73486328-7.51464844-4.8449707-7.06970214 0-7.06970215 4.8449707 0 5.73486328 7.51464843 4.8449707 7.06970214 0 7.06970216-4.8449707zM425.45794677 722.11352539q-0.88989258-4.8449707-7.93487548-3.97979737-7.06970214 1.33483887-6.17980957 6.62475586t7.93487549 3.53485108 6.17980956-6.17980957z" fill="#007AFF" p-id="2038"></path></svg>