<?xml version="1.0" standalone="no"?><!DOCTYPE svg PUBLIC "-//W3C//DTD SVG 1.1//EN" "http://www.w3.org/Graphics/SVG/1.1/DTD/svg11.dtd"><svg t="1536843578482" class="icon" style="" viewBox="0 0 1024 1024" version="1.1" xmlns="http://www.w3.org/2000/svg" p-id="1651" xmlns:xlink="http://www.w3.org/1999/xlink" width="200" height="200"><defs><style type="text/css"></style></defs><path d="M325.554435 1023.957335c-65.703929-141.946086-30.71872-223.436023 19.625849-300.104829 55.037707-83.708512 69.543769-166.947711 69.543769-166.94771s43.176868 58.749552 26.110912 150.521728c76.327486-89.041623 90.876213-230.134411 79.399359-284.574809 173.134119 126.032082 246.987042 398.916712 147.065872 601.10562 530.32457-312.477647 131.919837-779.9995 62.717387-832.903962 22.996375 52.904462 27.262864 142.07408-19.1992 185.208283C631.888338 64.167993 436.483147 0 436.483147 0c22.95371 161.102621-84.049831 336.967293-186.914879 468.759135-3.83984-64.039998-7.67968-108.582142-40.104996-170.019582-7.210366 116.603142-93.009458 211.959168-116.005833 328.519645-31.145369 158.542727 23.465689 274.292571 232.096996 396.698137z" fill="#007AFF" p-id="1652"></path></svg>