<?xml version="1.0" standalone="no"?><!DOCTYPE svg PUBLIC "-//W3C//DTD SVG 1.1//EN" "http://www.w3.org/Graphics/SVG/1.1/DTD/svg11.dtd"><svg t="1537364426829" class="icon" style="" viewBox="0 0 1024 1024" version="1.1" xmlns="http://www.w3.org/2000/svg" p-id="1889" xmlns:xlink="http://www.w3.org/1999/xlink" width="200" height="200"><defs><style type="text/css"></style></defs><path d="M642.00781223 197.86132812c59.02734348-9.14062473 114.4511716 9.45703098 159.31054687 53.17382786 45.58007785 44.43750027 67.42968777 102.99023438 61.20703152 164.40820339-6.15234402 60.67968777-38.35546848 120.60351563-92.54882812 173.42578153-15.11718777 14.74804715-55.75781223 54.56250027-114.08203098 111.76171848-26.22656223 25.734375-54.14062527 53.10351563-82.265625 80.73632812L546.27734375 808.19140652l-10.86328125 10.66992161a33.4160159 33.4160159 0 0 1-46.828125 0l-94.42968777-92.8125-19.9511716-19.54687528a558346.90429715 558346.90429715 0 0 0-120.18164063-117.63281195C199.83007785 536.046875 167.64453125 476.140625 161.49218723 415.44335937c-6.22265625-61.41796902 15.609375-119.97070313 61.20703152-164.40820339 44.85937527-43.71679688 100.2832034-62.29687473 159.31054687-53.17382785 43.80468777 6.76757785 88.24218723 28.58203125 130.00781223 63.4042966 41.78320285-34.8046875 86.20312527-56.63671875 130.00781305-63.4042966z" fill="#B7C5D3" p-id="1890"></path></svg>