<?xml version="1.0" standalone="no"?><!DOCTYPE svg PUBLIC "-//W3C//DTD SVG 1.1//EN" "http://www.w3.org/Graphics/SVG/1.1/DTD/svg11.dtd"><svg t="1538294095712" class="icon" style="" viewBox="0 0 1040 1024" version="1.1" xmlns="http://www.w3.org/2000/svg" p-id="1951" xmlns:xlink="http://www.w3.org/1999/xlink" width="203.125" height="200"><defs><style type="text/css"></style></defs><path d="M511.3823607 781.36166337c49.47993651-37.12575797 210.03979141-162.66844379 275.68951505-275.98965013l0.56900657-0.97127099 0.60235447-0.97057643c1.94115286-2.94577174 3.34734161-5.82554158 5.15510087-9.34032056 0.46965609-1.00461956 0.97127098-1.97589053 1.47358043-2.98051008l0.43491843-0.9038793 0.87053142-1.60627946 1.00461954-1.70771427c3.58216999-7.13099143 6.42720215-13.72562962 8.93805548-20.72253289 6.46124528-17.07366644 9.60780161-31.6364789 9.6751933-43.88922265l-0.43491844-4.48604929 0.46896155-4.48535475c0.13339358-1.23875271 0.33487341-2.87976984 0.33487341-4.85496581 0-92.63271655-71.40856877-168.02502449-159.15297092-168.0250245-42.08215859 0-83.3264391 18.51389898-113.08846228 50.78608091l-31.90396063 34.54890274-31.93800374-34.54890274c-29.82802507-32.27287716-71.07300081-50.7860809-113.12111628-50.78608091-87.74440217 0-159.15297094 75.39230795-159.15297095 168.0250245 0 2.14263201 0.26817627 4.05113085 0.43561299 5.62475699l0.33487341 3.98373986-0.20147983 3.54882141c0 14.99912067 3.91704273 32.17352668 11.58299761 51.05425719l0.50230943 1.2047096 0.36891653 1.03796743C270.40987964 594.5899965 454.13572975 738.57779984 511.3823607 781.36166337M511.41570858 827.02529671c-7.53186607 0-14.96368778-2.41011374-21.25819089-7.23103643C480.0481012 811.89417224 242.42296174 640.52111158 180.68958694 491.54425429c-0.36891652-0.80313972-0.66974614-1.63962802-0.97127097-2.51015877-9.80789234-24.10391762-14.76290251-46.76899247-14.76290251-67.42482891 0-1.00392433 0.03334856-1.94115286 0.10004502-2.87907528-0.33487341-2.84572672-0.66974614-6.36050503-0.66974614-10.27754844 0-116.63658915 90.89234895-211.47863416 202.57392726-211.47863415 55.03799703 0 107.29626857 23.93648092 145.02507622 64.74584366 37.69684886-40.80936276 89.88911918-64.74584368 145.02646604-64.74584366 111.61418662 0 202.57392726 94.91013126 202.57392723 211.47863415 0 3.88299961-0.30152483 7.09764286-0.56970111 9.50845182 0.13408814 1.03727288 0.16674147 2.31006873 0.16674147 3.71556358 0 18.27837604-4.08378488 37.89693891-12.453529 59.89157308-3.04651198 8.57052872-6.86281514 17.30849415-11.68373718 26.74816519-0.33487341 0.43561299-0.63570303 0.93722786-0.90387931 1.40618942l-0.23413314 0.56900657c-0.70309469 1.20609937-1.27210127 2.47750542-1.87445574 3.71625814-2.0092391 3.91704273-4.31861259 8.43713514-7.36651436 13.15731827C744.21992601 665.99787005 541.51260516 812.79805223 532.87607453 819.56012712 526.54822285 824.51513795 519.04901012 827.02529671 511.41570858 827.02529671L511.41570858 827.02529671 511.41570858 827.02529671z" fill="#6CBD45" p-id="1952"></path></svg>