<?xml version="1.0" standalone="no"?><!DOCTYPE svg PUBLIC "-//W3C//DTD SVG 1.1//EN" "http://www.w3.org/Graphics/SVG/1.1/DTD/svg11.dtd"><svg t="1537449255521" class="icon" style="" viewBox="0 0 1024 1024" version="1.1" xmlns="http://www.w3.org/2000/svg" p-id="1825" xmlns:xlink="http://www.w3.org/1999/xlink" width="200" height="200"><defs><style type="text/css"></style></defs><path d="M571.8910451 244.84393549c0-31.79222347-26.65042878-57.7184558-59.52894689-57.7184558-32.80609847 0-59.52894687 25.8538127-59.52894687 57.71845581 0 3.25888396 0.28967857 6.44534827 0.79661607 9.55939291-82.19629526 27.73672343-149.69140292 113.04706336-149.69140291 213.92762662v79.37192916s0 114.35061694-28.96785735 115.36449195c-17.30829478 0-30.56108952 12.89069653-30.56108952 28.82301807 0 16.00474119 13.32521438 28.82301807 29.76447344 28.82301807H750.55030537c16.51167869 0 29.76447344-12.89069653 29.76447344-28.82301807 0-16.07716084-13.32521438-28.82301807-29.76447344-28.82301807-29.76447344 0-29.76447344-114.56787586-29.76447344-114.56787587V468.25853538c0-100.95298291-63.07750941-186.26332283-149.69140291-214.00004625 0.50693751-3.04162503 0.79661608-6.22808933 0.79661608-9.41455363zM601.65551853 749.46401072c-0.07241965 47.86938428-39.68596458 86.54147388-89.29342032 86.54147386-49.24535752 0-89.22100068-38.59966993-89.2934203-86.54147387" fill="#1296db" p-id="1826"></path></svg>