<?xml version="1.0" standalone="no"?><!DOCTYPE svg PUBLIC "-//W3C//DTD SVG 1.1//EN" "http://www.w3.org/Graphics/SVG/1.1/DTD/svg11.dtd"><svg t="1539690870263" class="icon" style="" viewBox="0 0 1024 1024" version="1.1" xmlns="http://www.w3.org/2000/svg" p-id="2274" xmlns:xlink="http://www.w3.org/1999/xlink" width="200" height="200"><defs><style type="text/css"></style></defs><path d="M857.61984981 339.19007548c0-57.26471949-46.42170982-103.68563829-103.68563831-103.6856383L270.06578927 235.5044364c-57.26471949 0-103.68563829 46.42170982-103.6856383 103.68563832L166.38015019 684.80992452c0 57.26471949 46.42170982 103.68563829 103.68563831 103.6856383l483.86763121 0c57.26471949 0 103.68563829-46.42170982 103.6856383-103.6856383l0-69.12428623L684.80992452 615.68563829c-57.26471949 0-103.68563829-46.42170982-103.68563832-103.68563829s46.42170982-103.68563829 103.68563832-103.68563829l172.8099245 0L857.61984981 339.19007548z" fill="#007FFF" p-id="2275"></path><path d="M684.80992452 512.0023715m-51.84281955 0a50.66207886 50.66207886 0 1 0 103.68563832 0 50.66207886 50.66207886 0 1 0-103.68563832 0Z" fill="#007FFF" p-id="2276"></path></svg>