<?xml version="1.0" standalone="no"?><!DOCTYPE svg PUBLIC "-//W3C//DTD SVG 1.1//EN" "http://www.w3.org/Graphics/SVG/1.1/DTD/svg11.dtd"><svg t="1537492339887" class="icon" style="" viewBox="0 0 1024 1024" version="1.1" xmlns="http://www.w3.org/2000/svg" p-id="1825" xmlns:xlink="http://www.w3.org/1999/xlink" width="200" height="200"><defs><style type="text/css"></style></defs><path d="M905.23858467 315.3807081c0-65.15452529-52.81758984-117.97121513-117.97121514-117.97121513L236.73263135 197.40949209c-65.15452529 0-117.97121513 52.81758984-117.97121514 117.97121514L118.76141533 708.6192919c0 65.15452529 52.81758984 117.97121513 117.97121514 117.97121513l550.53383818 0c65.15452529 0 117.97121513-52.81758984 117.97121513-117.97121513l0-78.64807677L708.6192919 629.97121513c-65.15452529 0-117.97121513-52.81758984-117.97121515-117.97121513s52.81758984-117.97121513 117.97121515-117.97121513l196.61929188 0L905.23858467 315.3807081z" fill="#007FFF" p-id="1826"></path><path d="M708.6192919 512.00269824m-58.98560802 0a57.6421875 57.6421875 0 1 0 117.97121515 0 57.6421875 57.6421875 0 1 0-117.97121515 0Z" fill="#007FFF" p-id="1827"></path></svg>