<?xml version="1.0" standalone="no"?><!DOCTYPE svg PUBLIC "-//W3C//DTD SVG 1.1//EN" "http://www.w3.org/Graphics/SVG/1.1/DTD/svg11.dtd"><svg t="1536759605343" class="icon" style="" viewBox="0 0 1024 1024" version="1.1" xmlns="http://www.w3.org/2000/svg" p-id="3198" xmlns:xlink="http://www.w3.org/1999/xlink" width="200" height="200"><defs><style type="text/css"></style></defs><path d="M819.2 856.8832l-612.79573333 0.03413333A2.62826667 2.62826667 0 0 1 204.8 856.1664v-126.5664c0-6.2464 6.31466667-15.94026667 12.9024-18.60266667 1.1264-0.47786667 74.0352-32.29013333 159.9488-53.82826666 43.99786667-11.02506667 91.3408-19.42186667 134.3488-19.42186667 39.08266667 0 81.85173333 6.92906667 122.4704 16.4864a1132.37333333 1132.37333333 0 0 1 172.6464 57.10506667c5.66613333 2.32106667 12.0832 12.04906667 12.0832 18.26133333v127.31733333zM393.59146667 314.53866667A110.01173333 110.01173333 0 0 1 503.63733333 204.8a110.04586667 110.04586667 0 0 1 110.08 109.73866667v131.31093333a110.04586667 110.04586667 0 0 1-110.08 109.73866667 110.01173333 110.01173333 0 0 1-110.04586666-109.73866667v-131.31093333zM833.8432 648.53333333c-4.16426667-1.8432-62.464-27.30666667-137.9328-48.81066666a942.52373333 942.52373333 0 0 0-77.44853333-18.77333334c38.5024-32.63146667 63.52213333-80.72533333 63.52213333-135.09973333v-131.31093333A178.31253333 178.31253333 0 0 0 503.67146667 136.53333333c-98.304 0-178.34666667 79.70133333-178.34666667 178.00533334v131.31093333c0 55.84213333 26.4192 105.19893333 66.90133333 137.89866667-27.17013333 5.7344-53.4528 12.66346667-77.65333333 19.89973333a1171.89973333 1171.89973333 0 0 0-123.35786667 44.4416C160.01706667 660.61653333 136.53333333 695.67146667 136.53333333 729.6v140.45866667l1.80906667 5.3248c10.1376 29.7984 37.4784 49.83466667 68.06186667 49.83466666h611.19146666a69.90506667 69.90506667 0 0 0 69.29066667-60.75733333l0.58026667-134.82666667c0-33.72373333-23.41546667-68.7104-53.62346667-81.1008z" fill="#A4A4A4" p-id="3199"></path></svg>