<?xml version="1.0" standalone="no"?><!DOCTYPE svg PUBLIC "-//W3C//DTD SVG 1.1//EN" "http://www.w3.org/Graphics/SVG/1.1/DTD/svg11.dtd"><svg t="1536759610516" class="icon" style="" viewBox="0 0 1024 1024" version="1.1" xmlns="http://www.w3.org/2000/svg" p-id="3328" xmlns:xlink="http://www.w3.org/1999/xlink" width="200" height="200"><defs><style type="text/css"></style></defs><path d="M833.8432 648.53333333c-4.16426667-1.8432-62.464-27.30666667-137.9328-48.8448a942.52373333 942.52373333 0 0 0-77.44853333-18.7392c38.5024-32.63146667 63.52213333-80.72533333 63.52213333-135.09973333v-131.31093333A178.31253333 178.31253333 0 0 0 503.67146667 136.53333333c-98.304 0-178.34666667 79.70133333-178.34666667 178.00533334v131.31093333c0 55.84213333 26.4192 105.19893333 66.90133333 137.86453333-27.17013333 5.76853333-53.4528 12.6976-77.65333333 19.93386667a1171.89973333 1171.89973333 0 0 0-123.35786667 44.4416C160.01706667 660.61653333 136.53333333 695.67146667 136.53333333 729.6v140.45866667l1.80906667 5.3248c10.1376 29.7984 37.4784 49.80053333 68.06186667 49.80053333h611.19146666a69.90506667 69.90506667 0 0 0 69.29066667-60.75733333l0.58026667-134.82666667c0-33.6896-23.41546667-68.67626667-53.62346667-81.06666667" fill="#007AFF" p-id="3329"></path></svg>