<?xml version="1.0" standalone="no"?><!DOCTYPE svg PUBLIC "-//W3C//DTD SVG 1.1//EN" "http://www.w3.org/Graphics/SVG/1.1/DTD/svg11.dtd"><svg t="1538991302356" class="icon" style="" viewBox="0 0 1024 1024" version="1.1" xmlns="http://www.w3.org/2000/svg" p-id="2220" xmlns:xlink="http://www.w3.org/1999/xlink" width="200" height="200"><defs><style type="text/css"></style></defs><path d="M512 640.65123339h224.92681258c23.45853298 0 40.89559895-10.98108105 40.89559894-40.89559894V272.58948506c0-22.0931964-18.28369685-40.89627788-40.89559894-40.89627788H287.07318742c-22.62072824 0-40.89559895 18.76574009-40.89559894 40.89627788v327.16614939c0 29.82557751 17.72968657 40.89559895 40.89559894 40.89559894h81.79119788V763.33870915L512 640.65123339z m-184.03121363 40.89559894h-40.89559894c-45.33447045-0.66535547-81.79119788-37.50160709-81.79119789-81.79119788V272.58948506c0-45.06629147 36.53548378-81.79187681 81.79119789-81.79187682h449.85362515c45.32089177 0 81.79119788 36.83557268 81.79119787 81.79119788v327.16682833c0 44.40025706-36.52462084 81.12584241-81.79119787 81.79119788H532.44813894L327.96810743 845.13058597V681.54683233z" fill="#ABB4BF" p-id="2221"></path></svg>