<?xml version="1.0" standalone="no"?><!DOCTYPE svg PUBLIC "-//W3C//DTD SVG 1.1//EN" "http://www.w3.org/Graphics/SVG/1.1/DTD/svg11.dtd"><svg t="1539681028898" class="icon" style="" viewBox="0 0 1024 1024" version="1.1" xmlns="http://www.w3.org/2000/svg" p-id="2156" xmlns:xlink="http://www.w3.org/1999/xlink" width="200" height="200"><defs><style type="text/css"></style></defs><path d="M719.64160156 812.33874512c-11.12365723 0-25.9552002-3.70788575-40.78674317-14.83154298-3.70788575 0-44.49462891-29.66308594-74.15771483-44.4946289-29.66308594 7.41577148-59.32617188 11.12365723-92.69714356 11.12365723-174.27062989 0-307.75451661-114.94445801-307.75451661-263.2598877 0-152.02331543 137.19177247-278.09143067 307.75451661-278.09143066s307.75451661 122.3602295 307.75451661 278.09143067c0 59.32617188-22.24731445 118.65234375-63.03405763 163.14697264L756.72045898 771.55200195c0 18.53942872-7.41577148 33.37097168-22.24731445 40.78674317C730.76525879 812.33874512 727.05737305 812.33874512 719.64160156 812.33874512zM612.11291504 712.22583008l7.41577148 3.70788574c29.66308594 18.53942872 77.86560059 51.91040039 81.57348633 51.9104004 14.83154297 11.12365723 22.24731445 7.41577148 22.24731445 7.41577148 0 0 0-3.70788575 0-7.41577148l0-122.3602295 3.70788575-3.70788575c37.07885742-40.78674317 59.32617188-88.98925781 59.32617187-144.60754394 0-133.48388672-122.3602295-241.01257325-270.67565918-241.01257325-148.31542969 0-270.67565918 107.52868653-270.67565918 241.01257325 0 129.77600098 114.94445801 226.18103028 270.67565919 226.18103028 29.66308594 0 63.03405762-3.70788575 88.9892578-11.12365723L612.11291504 712.22583008z" fill="#cdcdcd" p-id="2157"></path></svg>