<?xml version="1.0" standalone="no"?><!DOCTYPE svg PUBLIC "-//W3C//DTD SVG 1.1//EN" "http://www.w3.org/Graphics/SVG/1.1/DTD/svg11.dtd"><svg t="1536935714895" class="icon" style="" viewBox="0 0 1029 1024" version="1.1" xmlns="http://www.w3.org/2000/svg" p-id="1736" xmlns:xlink="http://www.w3.org/1999/xlink" width="200.9765625" height="200"><defs><style type="text/css"></style></defs><path d="M870.62207412 331.24057007c-9.26971435-4.63485718-23.17428589 0-27.80914306 13.90457154l-18.53942871 50.98342894C796.46435928 326.60571289 754.75064468 270.98742675 689.8626442 233.90856933c-78.79257202-46.34857177-166.8548584-64.88800049-254.91714478-41.71371459C309.80435562 220.00399781 217.10721207 312.70114136 184.66321182 437.84228516 180.02835464 451.74685669 189.298069 461.01657104 198.56778335 465.65142823 212.47235488 465.65142823 221.74206925 461.01657104 226.37692642 447.11199951c27.80914307-111.23657227 111.23657227-194.66400146 222.47314453-217.83828735 78.79257202-18.53942872 157.58514404-4.63485718 222.47314453 37.07885742 55.61828614 32.44400024 97.33200073 83.4274292 120.50628662 143.68057251l-55.61828613-23.17428589c-9.26971435-4.63485718-23.17428589 0-27.80914307 13.90457153-4.63485718 9.26971435 0 23.17428589 9.26971436 27.80914307l92.69714356 37.07885742c4.63485718 4.63485718 9.26971435 4.63485718 13.90457153 4.63485718 0 0 4.63485718 0 4.63485717 0 0 0 0 0 0 0 0 0 0 0 4.63485718 0 4.63485718 0 9.26971435-4.63485718 9.26971436-9.26971436L884.52664566 354.41485596C889.16150284 345.1451416 879.89178848 335.87542724 870.62207412 331.24057007z" fill="#e0e0e0" p-id="1737"></path><path d="M828.90835952 558.34857177c-9.26971435-4.63485718-23.17428589 4.63485718-23.17428589 13.90457154-27.80914307 111.23657227-111.23657227 194.66400146-222.47314453 217.83828736-78.79257202 18.53942872-157.58514404 4.63485718-222.47314453-37.07885742-55.61828614-32.44400024-97.33200073-83.4274292-120.50628662-143.68057252l55.61828614 23.17428589c9.26971435 4.63485718 23.17428589 0 27.80914306-13.90457154 4.63485718-9.26971435 0-23.17428589-9.26971435-27.80914306L217.10721207 558.34857177C212.47235488 558.34857177 207.83749771 553.7137146 203.20264053 553.7137146c0 0-4.63485718 0-4.63485718 0 0 0 0 0 0 0 0 0 0 0-4.63485717 0C189.298069 558.34857177 184.66321182 562.98342896 184.66321182 567.61828614L142.94949722 669.58514404c-4.63485718 9.26971435 0 23.17428589 13.90457154 27.80914307 9.26971435 4.63485718 23.17428589 0 27.80914307-13.90457153l18.5394287-50.98342896C231.0117836 697.39428711 272.72549819 753.01257325 337.61349868 790.09143067c78.79257202 46.34857177 166.8548584 64.88800049 254.91714478 41.71371459 125.1411438-27.80914307 222.47314453-125.1411438 250.2822876-250.2822876C847.44778824 572.25314331 838.17807388 562.98342896 828.90835952 558.34857177z" fill="#e0e0e0" p-id="1738"></path></svg>