<?xml version="1.0" standalone="no"?><!DOCTYPE svg PUBLIC "-//W3C//DTD SVG 1.1//EN" "http://www.w3.org/Graphics/SVG/1.1/DTD/svg11.dtd"><svg t="1537877502305" class="icon" style="" viewBox="0 0 1024 1024" version="1.1" xmlns="http://www.w3.org/2000/svg" p-id="1984" xmlns:xlink="http://www.w3.org/1999/xlink" width="200" height="200"><defs><style type="text/css"></style></defs><path d="M825.19712368 582.71795108l-60.73300119-46.11264208 0.77027223-5.37709296a148.1292711 148.1292711 0 0 0 0.77027224-18.44209431 127.39117276 127.39117276 0 0 0-1.4812926-18.44209366l-0.77027224-5.37709296 60.73300119-46.1126421a29.62585396 29.62585396 0 0 0 6.91763678-39.19500466l-63.01419194-106.83082998a32.27736788 32.27736788 0 0 0-27.67054778-15.37581867 51.84524492 51.84524492 0 0 0-10.75418465 1.48129261l-71.4723732 27.67054778-3.83654849-3.08108892a240.90263336 240.90263336 0 0 0-33.81791233-19.2568051l-4.60682011-2.31081669-10.75418529-73.78318923A30.6775722 30.6775722 0 0 0 574.66608776 186.11664132h-127.5689277a30.70719812 30.70719812 0 0 0-30.73682406 25.3597311l-9.9987257 73.78318987-4.6068201 2.31081668a195.08624993 195.08624993 0 0 0-33.81791233 19.25680512l-3.85136116 2.31081668-71.47237317-27.67054777a24.42651658 24.42651658 0 0 0-10.7541853-1.48129326 31.00345614 31.00345614 0 0 0-26.90027555 15.37581867L191.17421853 402.96308062a30.63313299 30.63313299 0 0 0 6.91763743 39.1950053l57.63709897 43.81663805 3.06627627 5.37709233v3.83654849a130.76852032 130.76852032 0 0 0-0.77027223 16.91636251 154.91359153 154.91359153 0 0 0 0.77027223 18.4420943l0.77027224 5.37709232-60.73300119 46.11264209a29.62585396 29.62585396 0 0 0-6.91763742 39.1950053l63.01419194 106.83082998a32.29218116 32.29218116 0 0 0 27.67054778 15.37581868 51.84524492 51.84524492 0 0 0 10.75418529-1.48129325l71.47237317-27.67054779 3.83654787 2.31081669a240.88782009 240.88782009 0 0 0 33.81791297 19.25680512l4.60682011 2.31081668 10.75418529 73.78318988A30.78126263 30.78126263 0 0 0 448.62289123 837.88543302h127.56892834a30.70719812 30.70719812 0 0 0 30.69238484-25.35973171l10.75418529-73.78318922 4.6068201-2.31081672a195.05662399 195.05662399 0 0 0 33.81791233-19.25680573l3.83654851-2.31081606 71.47237318 27.67054778a24.42651658 24.42651658 0 0 0 10.75418465 1.4812926 29.49253761 29.49253761 0 0 0 26.90027555-15.37581866l63.78446417-107.6011022a28.97408544 28.97408544 0 0 0-7.61384451-38.32104201z m-313.56004051 64.55473577a133.73110553 133.73110553 0 1 1 133.76073147-133.79035738 133.81998331 133.81998331 0 0 1-133.76073146 133.79035738z" fill="#ABB4BF" p-id="1985"></path></svg>