<?xml version="1.0" standalone="no"?><!DOCTYPE svg PUBLIC "-//W3C//DTD SVG 1.1//EN" "http://www.w3.org/Graphics/SVG/1.1/DTD/svg11.dtd"><svg t="1539165672426" class="icon" style="" viewBox="0 0 1024 1024" version="1.1" xmlns="http://www.w3.org/2000/svg" p-id="2009" xmlns:xlink="http://www.w3.org/1999/xlink" width="200" height="200"><defs><style type="text/css"></style></defs><path d="M230.05526495 449.34499954c-34.60008637 0-62.65421022 28.04384758-62.65421021 62.65500046 0 34.59060036 28.05333361 62.65421022 62.65421021 62.65421022 34.6008766 0 62.65500046-28.06360986 62.65500046-62.65421022C292.7102654 477.38884715 264.6569318 449.34499954 230.05526495 449.34499954zM511.9996045 449.34499954c-34.60008637 0-62.65421022 28.04384758-62.65421023 62.65500046 0 34.59060036 28.05333361 62.65421022 62.65421022 62.65421022 34.6008766 0 62.65500046-28.06360986 62.65500047-62.65421022C574.65460496 477.38884715 546.60048109 449.34499954 511.9996045 449.34499954zM793.9439448 449.34499954c-34.60008637 0-62.65421022 28.04384758-62.6542102 62.65500046 0 34.59060036 28.05333361 62.65421022 62.6542102 62.65421022s62.65421022-28.06360986 62.65421023-62.65421022C856.59736401 477.38884715 828.5440304 449.34499954 793.9439448 449.34499954z" fill="#bfbfbf" p-id="2010"></path></svg>