<?xml version="1.0" standalone="no"?><!DOCTYPE svg PUBLIC "-//W3C//DTD SVG 1.1//EN" "http://www.w3.org/Graphics/SVG/1.1/DTD/svg11.dtd"><svg t="1539246559526" class="icon" style="" viewBox="0 0 1024 1024" version="1.1" xmlns="http://www.w3.org/2000/svg" p-id="2092" xmlns:xlink="http://www.w3.org/1999/xlink" width="200" height="200"><defs><style type="text/css"></style></defs><path d="M834.45463603 433.95563877c-2.74058381-8.22175214-9.84118862-14.20120892-18.43665656-15.57150081l-195.82719274-30.27099743L532.74123862 200.88141643c-3.86173187-8.09718022-11.95891281-13.32920471-20.92809724-13.32920471 0 0 0 0 0 0-8.96918442 0-17.06636465 5.10745255-20.92809723 13.32920471l-88.19697966 186.85800832L206.48715671 417.26298989c-8.59546865 1.24571998-15.69607275 7.22517602-18.56122848 15.44692889s-0.74743228 17.3155085 5.3565964 23.54410912L335.54375397 602.62613367 301.53559661 808.91737466c-1.49486383 8.72004057 2.2422961 17.56465307 9.46747212 22.67210491 7.22517602 5.10745255 16.81722079 5.60574026 24.54068524 1.37029189L510.69199406 736.66561157l174.77452359 96.91702025c3.48801608 1.86858033 7.34974867 2.86515646 11.21148053 2.86515646 0.12457193 0 0.37371578 0 0.4982877 0 12.83091629 0 23.17039334-10.33947632 23.17039334-23.17039334 0-2.86515646-0.49828771-5.60574026-1.49486384-8.22175214l-32.51329353-201.80664879 142.63494656-145.74924614C835.07749638 451.27114725 837.19522056 442.17739091 834.45463603 433.95563877z" fill="#f5be3b" p-id="2093"></path></svg>