<?xml version="1.0" standalone="no"?><!DOCTYPE svg PUBLIC "-//W3C//DTD SVG 1.1//EN" "http://www.w3.org/Graphics/SVG/1.1/DTD/svg11.dtd"><svg t="1537449586952" class="icon" style="" viewBox="0 0 1024 1024" version="1.1" xmlns="http://www.w3.org/2000/svg" p-id="1831" xmlns:xlink="http://www.w3.org/1999/xlink" width="200" height="200"><defs><style type="text/css"></style></defs><path d="M874.64498475 512.60370825c20.97580658 24.78870079 21.21411245 48.62662219 0.71613974 71.50887586L653.68043191 806.5057502c-4.76611778 3.81167214-9.89152752 6.55524507-15.37134089 8.22583046-5.48225753 1.66447498-11.07816863 2.26207282-16.80606454 1.78790521-5.71934134-0.47905594-11.08305697-1.66814123-16.08992479-3.5770325s-9.17538778-4.52903397-12.51655856-7.86165017c-53.39151789-53.39396204-101.06247235-101.30933281-143.01652964-143.73511356l-52.9210165-53.63226794c-17.64074619-17.16169026-33.24794881-32.6540172-46.8374949-46.48309126-13.58954608-13.82418573-24.67015888-25.02700669-33.25283713-33.61090701l-13.58587985-13.58832401c-0.95444564-0.95077939-2.49915664-2.97821258-4.64390963-6.07985537-2.14719716-3.09797656-4.41171414-7.14795459-6.7972172-12.15360034-2.38428097-5.00442367-4.52781189-10.60888935-6.43670318-16.80606455-1.90522503-6.19350895-2.85844859-12.87096217-2.85844858-20.02380509l0-12.8697401c0-6.67500906 0.11854191-15.01571518 0.3568478-25.02822876 0.23952797-10.01251357 0.47905594-20.97580658 0.71613974-32.89232309 0.23586172-11.92262694 0.35562571-24.07744937 0.3556257-36.47424392 0.47661178-29.0782068 0.95322355-61.25561223 1.42739118-96.53343838 0.95444564-5.72300758 2.02865526-11.44601516 3.21896262-17.16657858 1.18908528-5.71934134 4.17340826-11.20159887 8.93708189-16.4467726 4.76611778-4.76611778 10.13105549-7.98630249 16.09114688-9.65444371 5.95520306-1.67180747 11.31769661-2.50282287 16.08748063-2.50282287l217.3899645 0c0.95444564-0.47783386 4.29072809-0.59637577 10.01006943-0.35684779 5.71445302 0.23952797 9.29759591 0.83468165 10.723765 1.78668313 2.86211483 0.95444564 6.08107746 2.62136479 9.65688788 5.00442366 3.56970001 2.38305889 6.55524507 4.76733987 8.93341563 7.15039875L874.64498475 512.60370825zM386.9464834 355.27904862c12.39190623 0 22.88347576-4.29195017 31.46493193-12.87218427 8.58145618-8.58267825 12.87462842-19.07058154 12.87462842-31.46737608 0-12.39679456-4.29195017-22.88591992-12.87462842-31.46370985-8.58145618-8.58267825-19.06813736-12.87218426-31.46493193-12.87218425s-22.99835142 4.289506-31.82422389 12.87218425c-8.81487373 8.58023408-13.22658788 19.06691529-13.22658787 31.46370985 0 12.39435039 4.41171414 22.88347576 13.22658787 31.46737608C363.94813198 350.98709845 374.55091093 355.27904862 386.9464834 355.27904862L386.9464834 355.27904862z" fill="#ABB4BF" p-id="1832"></path></svg>