<?xml version="1.0" standalone="no"?><!DOCTYPE svg PUBLIC "-//W3C//DTD SVG 1.1//EN" "http://www.w3.org/Graphics/SVG/1.1/DTD/svg11.dtd"><svg t="1536907911902" class="icon" style="" viewBox="0 0 1024 1024" version="1.1" xmlns="http://www.w3.org/2000/svg" p-id="1904" xmlns:xlink="http://www.w3.org/1999/xlink" width="200" height="200"><defs><style type="text/css"></style></defs><path d="M696.5612 473.3576c-29.4156-5.598-15.408-21.7044-15.408-21.7044s28.7154-47.6316-5.6088-81.9558c-42.7212-42.7212-146.3814 5.6106-146.3814 5.6106-39.2238 11.9088-28.7136-5.6106-23.1174-36.423 0-35.7228-12.6054-96.651-118.3662-60.2262-105.0606 35.712-195.4134 162.4878-195.4134 162.4878-63.0378 84.042-54.63 148.4802-54.63 148.4802 15.4062 143.5824 168.0984 182.8062 286.4646 191.9124 124.677 9.8082 292.7628-42.7194 343.8918-151.2918C819.1268 521.6894 725.975 478.9682 696.5612 473.3576L696.5612 473.3576zM433.2122 741.6152c-123.9768 5.5962-224.127-56.727-224.127-139.383 0-82.6434 100.1502-148.482 224.127-154.0908 123.966-5.5962 224.1252 44.8326 224.1252 127.476C657.3374 658.2752 557.1782 736.0064 433.2122 741.6152L433.2122 741.6152z" fill="#007AFF" p-id="1905"></path><path d="M408.6962 502.0838c-124.677 14.7078-110.6694 131.6736-110.6694 131.6736s-0.7002 36.4122 33.6258 55.3284c72.846 39.2202 147.7818 15.4062 185.6034-32.9256C555.0776 607.1426 533.3606 488.0762 408.6962 502.0838L408.6962 502.0838zM377.171 665.9702c-23.103 2.799-42.021-10.5084-42.021-30.1122 0-19.6164 16.8174-39.9222 39.9222-42.021 26.6148-2.8116 44.1324 12.6054 44.1324 32.2128C419.2046 645.6662 400.2884 663.1712 377.171 665.9702L377.171 665.9702zM450.719 603.6308c-8.4096 5.6106-17.5068 4.9122-21.717-2.0988-4.8978-6.9984-2.799-18.2052 4.9104-23.814 9.0972-6.9984 18.9054-4.8996 23.1156 2.1096C461.2256 586.8242 457.7282 597.3344 450.719 603.6308L450.719 603.6308z" fill="#007AFF" p-id="1906"></path><path d="M757.5002 422.9396c9.7956 0 18.2052-7.7094 19.6056-17.5176 0-0.7002 0.7002-1.3986 0.7002-2.0988 14.7078-136.5732-112.0572-112.7682-112.0572-112.7682-11.2086 0-20.3166 9.108-20.3166 20.3184 0 11.2068 9.1098 20.3166 20.3166 20.3166 91.0404-20.3166 70.7346 71.4348 70.7346 71.4348C736.4816 413.8316 745.5914 422.9396 757.5002 422.9396L757.5002 422.9396z" fill="#007AFF" p-id="1907"></path><path d="M742.0814 184.7708c-43.4214-10.4958-88.9416-1.7316-101.5488 1.0674-0.7002 0-2.1132 0.5274-2.8116 0.5274-0.7002 0-0.7002 0.6138-0.7002 0.6138-12.609 3.5118-21.7062 15.3702-21.7062 28.6776 0 16.1064 13.3074 29.4012 29.4138 29.4012 0 0 16.1064-2.1114 27.315-6.3216 10.5084-4.1976 101.5614-2.8116 147.0816 72.8334 24.516 55.3284 10.5084 92.4516 9.108 98.7606 0 0-6.309 14.0094-6.309 28.7172 0 16.1064 13.3074 27.2898 30.1248 27.2898 13.3092 0 25.2162 0.6642 28.0134-24.5358l0.7002 0C929.096 269 821.2256 202.9886 742.0814 184.7708L742.0814 184.7708z" fill="#007AFF" p-id="1908"></path></svg>