<?xml version="1.0" standalone="no"?><!DOCTYPE svg PUBLIC "-//W3C//DTD SVG 1.1//EN" "http://www.w3.org/Graphics/SVG/1.1/DTD/svg11.dtd"><svg t="1539409481528" class="icon" style="" viewBox="0 0 1024 1024" version="1.1" xmlns="http://www.w3.org/2000/svg" p-id="2084" xmlns:xlink="http://www.w3.org/1999/xlink" width="200" height="200"><defs><style type="text/css"></style></defs><path d="M624.64 203.264h-1.536c-13.824 0-24.576 11.264-24.576 24.576v590.336c0 13.824 11.264 24.576 24.576 24.576h1.536c13.824 0 24.576-11.264 24.576-24.576V227.84c0-13.824-10.752-24.576-24.576-24.576zM838.656 474.624h-1.536c-13.824 0-24.576 11.264-24.576 24.576v318.976c0 13.824 11.264 24.576 24.576 24.576h1.536c13.824 0 24.576-11.264 24.576-24.576V499.2c0.512-13.824-10.752-24.576-24.576-24.576zM410.624 408.064h-1.536c-13.824 0-24.576 11.264-24.576 24.576v385.536c0 13.824 11.264 24.576 24.576 24.576h1.536c13.824 0 24.576-11.264 24.576-24.576V432.64c0-13.824-10.752-24.576-24.576-24.576zM196.608 623.104H194.56c-13.824 0-24.576 11.264-24.576 24.576v170.496c0 13.824 11.264 24.576 24.576 24.576h1.536c13.824 0 24.576-11.264 24.576-24.576v-170.496c0.512-13.824-10.752-24.576-24.064-24.576z" fill="#8b8b8b" p-id="2085"></path></svg>